<svg width="16" height="13" viewBox="0 0 16 13" fill="none" xmlns="http://www.w3.org/2000/svg">
<path d="M15.3727 0.674884L15.3341 0.635298C15.1352 0.433885 14.8989 0.274114 14.6389 0.165109C14.3789 0.0561043 14.1003 0 13.8189 0C13.5375 0 13.2588 0.0561043 12.9988 0.165109C12.7388 0.274114 12.5026 0.433885 12.3036 0.635298L5.33817 7.68581L3.70438 6.03219C3.50291 5.82824 3.26373 5.66645 3.00048 5.55607C2.73723 5.44569 2.45508 5.38888 2.17014 5.38888C1.88519 5.38888 1.60304 5.44569 1.33979 5.55607C1.07655 5.66645 0.837361 5.82824 0.635897 6.03219C0.434301 6.23611 0.274379 6.47823 0.165269 6.74473C0.0561594 7.01123 0 7.29687 0 7.58534C0 7.87381 0.0561594 8.15946 0.165269 8.42595C0.274379 8.69245 0.434301 8.93457 0.635897 9.13849L3.78438 12.3252L3.8229 12.3648C4.02183 12.5661 4.25801 12.7259 4.51796 12.8349C4.7779 12.9439 5.05651 13 5.33788 13C5.61925 13 5.89786 12.9439 6.1578 12.8349C6.41774 12.7259 6.65393 12.5661 6.85286 12.3648L6.87242 12.345L15.3727 3.741C15.7743 3.33439 16 2.78294 16 2.20794C16 1.63295 15.7743 1.0815 15.3727 0.674884Z" fill="#FFC116"/>
</svg>
