<svg width="19" height="19" viewBox="0 0 19 19" fill="none" xmlns="http://www.w3.org/2000/svg">
<g clip-path="url(#clip0_1_102)">
<path d="M9.5 19C14.7467 19 19 14.7467 19 9.5C19 4.25329 14.7467 0 9.5 0C4.25329 0 0 4.25329 0 9.5C0 14.7467 4.25329 19 9.5 19Z" fill="url(#paint0_linear_1_102)"/>
<path d="M18.9258 10.7031C18.4549 14.4296 15.8253 17.4834 12.3292 18.5703L6.88416 13.1286L14.0927 5.87146L18.9258 10.7031Z" fill="url(#paint1_linear_1_102)"/>
<path d="M14.1168 5.89595L14.0926 5.87146C13.968 5.74684 13.8201 5.64799 13.6573 5.58055C13.4945 5.51311 13.32 5.47839 13.1438 5.47839C12.9675 5.47839 12.793 5.51311 12.6302 5.58055C12.4674 5.64799 12.3195 5.74684 12.1949 5.87146L7.83304 10.2337L6.80993 9.21056C6.68378 9.08437 6.53399 8.98427 6.36915 8.91598C6.2043 8.84769 6.02761 8.81254 5.84917 8.81254C5.67074 8.81254 5.49405 8.84769 5.3292 8.91598C5.16435 8.98427 5.01457 9.08437 4.88841 9.21056C4.76217 9.33672 4.66202 9.48653 4.5937 9.65141C4.52537 9.8163 4.4902 9.99303 4.4902 10.1715C4.4902 10.35 4.52537 10.5267 4.5937 10.6916C4.66202 10.8565 4.76217 11.0063 4.88841 11.1325L6.86003 13.1041L6.88415 13.1286C7.00873 13.2532 7.15663 13.352 7.31941 13.4195C7.48219 13.4869 7.65666 13.5216 7.83285 13.5216C8.00905 13.5216 8.18352 13.4869 8.3463 13.4195C8.50908 13.352 8.65698 13.2532 8.78156 13.1286L8.7938 13.1163L14.1168 7.79298C14.3683 7.54141 14.5096 7.20022 14.5096 6.84447C14.5096 6.48871 14.3683 6.14752 14.1168 5.89595Z" fill="white"/>
</g>
<defs>
<linearGradient id="paint0_linear_1_102" x1="2.78246" y1="2.78246" x2="16.2175" y2="16.2175" gradientUnits="userSpaceOnUse">
<stop stop-color="#FFC116"/>
<stop offset="1" stop-color="#FFDA74"/>
</linearGradient>
<linearGradient id="paint1_linear_1_102" x1="10.4763" y1="9.48777" x2="16.7115" y2="15.7233" gradientUnits="userSpaceOnUse">
<stop stop-color="#83630E"/>
<stop offset="0.93" stop-color="#FFC116" stop-opacity="0"/>
</linearGradient>
<clipPath id="clip0_1_102">
<rect width="19" height="19" fill="white"/>
</clipPath>
</defs>
</svg>
