<svg width="69" height="68" viewBox="0 0 69 68" fill="none" xmlns="http://www.w3.org/2000/svg">
<circle cx="34.0273" cy="34" r="34" fill="white"/>
<g clip-path="url(#clip0_1_247)">
<path d="M49.8633 29.3985C48.986 29.3985 47.4046 29.7115 45.821 31.5039C43.9028 29.58 41.1584 28.3732 38.1914 28.3732H29.6836C29.287 28.3732 28.8874 28.3992 28.46 28.4533C26.7039 25.7526 23.5141 25.8788 21.9712 26.3734C21.6231 26.4846 21.3594 26.764 21.275 27.1104C21.1895 27.4569 21.2956 27.8214 21.5551 28.0727C22.1628 28.6635 22.6428 29.5837 22.96 30.7564C21.7014 31.7807 20.7126 33.0655 20.0565 34.5255H18.082C17.4991 34.5255 17.0273 34.9841 17.0273 35.5509V41.7032C17.0273 42.27 17.4991 42.7286 18.082 42.7286H20.0575C21.1596 45.1649 23.2196 47.1699 25.7604 48.1673L25.4793 49.8065C25.4278 50.1039 25.5143 50.4073 25.7151 50.6376C25.9149 50.8679 26.2095 51.0001 26.5195 51.0001H30.7382C31.2542 51.0001 31.694 50.6376 31.7785 50.1429L31.9835 48.9493H35.8915L36.0964 50.1429C36.1809 50.6376 36.6207 51.0001 37.1367 51.0001H41.3555C41.6655 51.0001 41.9601 50.8679 42.1598 50.6376C42.3607 50.4073 42.4472 50.1038 42.3957 49.8065L42.1155 48.1693C46.1129 46.6192 48.8086 42.8488 48.8086 38.6271C48.8086 36.6201 48.19 34.7598 47.1606 33.1769C48.0213 32.078 48.9629 31.4493 49.8633 31.4493C50.4668 31.4493 50.918 31.7197 50.918 31.962C50.918 32.3575 50.5101 32.6039 50.508 32.6049C49.9993 32.8823 49.818 33.5071 50.1023 34.0008C50.3867 34.4934 51.0277 34.6716 51.5381 34.3953C52.0911 34.0939 53.0273 33.2427 53.0273 31.962C53.0273 30.5241 51.6379 29.3985 49.8633 29.3985ZM26.5195 36.5763C25.9371 36.5763 25.4648 36.1172 25.4648 35.5509C25.4648 34.9845 25.9371 34.5255 26.5195 34.5255C27.102 34.5255 27.5742 34.9845 27.5742 35.5509C27.5742 36.1172 27.102 36.5763 26.5195 36.5763ZM39.2461 34.5255H30.7383C30.1553 34.5255 29.6836 34.0669 29.6836 33.5001C29.6836 32.9333 30.1553 32.4747 30.7383 32.4747H39.2461C39.8291 32.4747 40.3008 32.9333 40.3008 33.5001C40.3008 34.0669 39.8291 34.5255 39.2461 34.5255Z" fill="#FFC116"/>
<path d="M29.6836 21.1953C29.6836 24.0222 32.1197 26.3223 35.0273 26.3223C37.935 26.3223 40.3008 24.0222 40.3008 21.1953C40.3008 18.3684 37.935 16 35.0273 16C32.1197 16 29.6836 18.3684 29.6836 21.1953Z" fill="#FFC116"/>
</g>
<defs>
<clipPath id="clip0_1_247">
<rect width="36" height="35" fill="white" transform="translate(17.0273 16)"/>
</clipPath>
</defs>
</svg>
