<svg width="39" height="39" viewBox="0 0 39 39" fill="none" xmlns="http://www.w3.org/2000/svg">
<circle cx="19.5" cy="19.5" r="19.5" fill="#FFC116"/>
<g clip-path="url(#clip0_1_61)">
<path d="M24.4212 12H14.5788C13.1568 12 12 13.1568 12 14.5788V24.4213C12 25.8432 13.1568 27 14.5788 27H24.4213C25.8432 27 27 25.8432 27 24.4212V14.5788C27 13.1568 25.8432 12 24.4212 12ZM15.8942 24.3679C15.1972 24.3679 14.6321 23.8028 14.6321 23.1059C14.6321 22.4089 15.1972 21.8438 15.8942 21.8438C16.5911 21.8438 17.1562 22.4089 17.1562 23.1059C17.1562 23.8028 16.5912 24.3679 15.8942 24.3679ZM19.5 20.7621C18.8031 20.7621 18.238 20.197 18.238 19.5001C18.238 18.8031 18.8031 18.238 19.5 18.238C20.197 18.238 20.7621 18.8031 20.7621 19.5001C20.762 20.197 20.1969 20.7621 19.5 20.7621ZM23.1058 17.1562C22.4088 17.1562 21.8438 16.5912 21.8438 15.8943C21.8438 15.1973 22.4088 14.6322 23.1057 14.6322C23.8027 14.6322 24.3678 15.1973 24.3678 15.8943C24.3678 16.5912 23.8027 17.1562 23.1058 17.1562Z" fill="black"/>
</g>
<defs>
<clipPath id="clip0_1_61">
<rect width="15" height="15" fill="white" transform="translate(12 12)"/>
</clipPath>
</defs>
</svg>
