<svg width="39" height="39" viewBox="0 0 39 39" fill="none" xmlns="http://www.w3.org/2000/svg">
<circle cx="19.5" cy="19.5" r="19.5" fill="#FFC116"/>
<g clip-path="url(#clip0_1_53)">
<path d="M28.3301 17.2735C27.8671 17.2735 27.0324 17.4433 26.1967 18.4164C25.1842 17.372 23.7358 16.7168 22.1699 16.7168H17.6797C17.4704 16.7168 17.2595 16.731 17.0339 16.7603C16.1071 15.2942 14.4236 15.3627 13.6093 15.6313C13.4255 15.6916 13.2864 15.8433 13.2418 16.0313C13.1967 16.2194 13.2527 16.4173 13.3897 16.5537C13.7104 16.8745 13.9637 17.374 14.1311 18.0106C13.4668 18.5666 12.945 19.2641 12.5987 20.0567H11.5566C11.249 20.0567 11 20.3056 11 20.6133V23.9531C11 24.2608 11.249 24.5098 11.5566 24.5098H12.5993C13.1809 25.8324 14.2681 26.9208 15.6091 27.4622L15.4607 28.3521C15.4336 28.5135 15.4792 28.6782 15.5852 28.8032C15.6907 28.9283 15.8461 29 16.0097 29H18.2363C18.5086 29 18.7408 28.8032 18.7853 28.5347L18.8935 27.8867H20.9561L21.0642 28.5347C21.1088 28.8032 21.3409 29 21.6133 29H23.8398C24.0035 29 24.1589 28.9283 24.2644 28.8032C24.3704 28.6782 24.416 28.5135 24.3888 28.3521L24.241 27.4633C26.3507 26.6218 27.7734 24.575 27.7734 22.2832C27.7734 21.1937 27.4469 20.1839 26.9037 19.3246C27.3579 18.728 27.8549 18.3867 28.3301 18.3867C28.6486 18.3867 28.8867 18.5335 28.8867 18.6651C28.8867 18.8798 28.6714 19.0135 28.6704 19.014C28.4018 19.1646 28.3062 19.5038 28.4562 19.7718C28.6063 20.0393 28.9446 20.136 29.214 19.986C29.5059 19.8224 30 19.3603 30 18.6651C30 17.8845 29.2667 17.2735 28.3301 17.2735ZM16.0098 21.1699C15.7024 21.1699 15.4531 20.9207 15.4531 20.6133C15.4531 20.3058 15.7024 20.0567 16.0098 20.0567C16.3172 20.0567 16.5664 20.3058 16.5664 20.6133C16.5664 20.9207 16.3172 21.1699 16.0098 21.1699ZM22.7266 20.0567H18.2363C17.9287 20.0567 17.6797 19.8077 17.6797 19.5C17.6797 19.1924 17.9287 18.9434 18.2363 18.9434H22.7266C23.0342 18.9434 23.2832 19.1924 23.2832 19.5C23.2832 19.8077 23.0342 20.0567 22.7266 20.0567Z" fill="black"/>
<path d="M17.6797 12.8203C17.6797 14.3549 18.9654 15.6035 20.5 15.6035C22.0346 15.6035 23.2832 14.3549 23.2832 12.8203C23.2832 11.2857 22.0346 10 20.5 10C18.9654 10 17.6797 11.2857 17.6797 12.8203Z" fill="black"/>
</g>
<defs>
<clipPath id="clip0_1_53">
<rect width="19" height="19" fill="white" transform="translate(11 10)"/>
</clipPath>
</defs>
</svg>
