<svg width="13" height="12" viewBox="0 0 13 12" fill="none" xmlns="http://www.w3.org/2000/svg">
<path d="M12.3863 11.3472L9.28799 8.29846C10.0993 7.41698 10.5978 6.25122 10.5978 4.96841C10.5974 2.22426 8.33712 0 5.54866 0C2.7602 0 0.499878 2.22426 0.499878 4.96841C0.499878 7.71257 2.7602 9.93683 5.54866 9.93683C6.75347 9.93683 7.85849 9.52011 8.72648 8.82731L11.8368 11.888C11.9883 12.0373 12.2344 12.0373 12.3859 11.888C12.422 11.8528 12.4506 11.8108 12.4702 11.7644C12.4897 11.7179 12.4998 11.6681 12.4999 11.6177C12.4999 11.5673 12.4899 11.5174 12.4704 11.4709C12.4509 11.4245 12.4223 11.3824 12.3863 11.3472ZM5.54866 9.17241C3.18932 9.17241 1.2767 7.29022 1.2767 4.96841C1.2767 2.64661 3.18932 0.764419 5.54866 0.764419C7.90802 0.764419 9.82062 2.64661 9.82062 4.96841C9.82062 7.29022 7.90802 9.17241 5.54866 9.17241Z" fill="#000000"/>
</svg>
