<svg width="16" height="16" viewBox="0 0 16 16" fill="none" xmlns="http://www.w3.org/2000/svg">
<path d="M12.9999 7.49999H9.00001V3.49997C9.00001 3.22404 8.77598 3 8.49995 3C8.22402 3 7.99999 3.22404 7.99999 3.49997V7.49999H3.99997C3.72404 7.49999 3.5 7.72402 3.5 7.99995C3.5 8.27598 3.72404 8.50001 3.99997 8.50001H7.99999V12.4999C7.99999 12.776 8.22402 13 8.49995 13C8.77598 13 9.00001 12.776 9.00001 12.4999V8.50001H12.9999C13.276 8.50001 13.5 8.27598 13.5 7.99995C13.5 7.72402 13.276 7.49999 12.9999 7.49999Z" fill="#000000"/>
</svg>
