<svg width="51" height="50" viewBox="0 0 51 50" fill="none" xmlns="http://www.w3.org/2000/svg">
<circle cx="25.5" cy="25" r="25" fill="#FFC116"/>
<g clip-path="url(#clip0_2029_2)">
<path fill-rule="evenodd" clip-rule="evenodd" d="M24.7242 13.8691L27.6316 15.5477L18.2057 20.9898V25.0223C18.2057 25.1835 18.2855 25.3218 18.4251 25.4024L20.61 26.6639C20.6798 26.7042 20.7596 26.7042 20.8294 26.6639C20.8992 26.6236 20.9391 26.5544 20.9391 26.4739V22.5679L30.3651 17.1259L33.2724 18.8044C33.5515 18.9656 33.7113 19.2423 33.7113 19.5646V24.6088C32.922 24.3426 32.0868 24.199 31.2526 24.1481V23.8099C31.2526 23.4415 31.0423 23.1111 30.7084 22.9552C30.3747 22.7993 29.9863 22.8501 29.7038 23.0865L26.3572 25.8875C26.0796 26.1198 25.9279 26.4586 25.9394 26.8204C25.951 27.1838 26.1229 27.5098 26.4159 27.7248L29.7513 30.1719C30.0393 30.3832 30.417 30.4142 30.7357 30.2528C31.0547 30.0911 31.2527 29.7689 31.2527 29.4113V29.0379C31.9468 29.1207 32.634 29.3341 33.1983 29.7426C33.3078 29.8219 33.4115 29.9082 33.5081 30.0009C33.4435 30.0766 33.3645 30.1423 33.2725 30.1954L24.7242 35.1307C24.4451 35.2918 24.1256 35.2918 23.8465 35.1307L15.2983 30.1954C15.0192 30.0342 14.8594 29.7575 14.8594 29.4352V19.5646C14.8594 19.2423 15.0192 18.9656 15.2983 18.8045L23.8465 13.8691C24.1256 13.708 24.4451 13.708 24.7242 13.8691ZM30.5339 28.2775C35.2278 28.2775 36.558 32.7607 32.7025 34.7758C32.6813 34.7867 32.6723 34.812 32.682 34.8338C32.6911 34.854 32.7125 34.8648 32.7341 34.8594C39.1397 33.2838 38.6919 24.8452 30.5339 24.8452V23.8099C30.5339 23.7206 30.4852 23.6442 30.4043 23.6064C30.3234 23.5686 30.2336 23.5804 30.1651 23.6377L26.8185 26.4387C26.709 26.5303 26.6533 26.6549 26.6578 26.7976C26.6624 26.9402 26.726 27.061 26.8411 27.1454L30.1764 29.5924C30.2464 29.6438 30.3334 29.6509 30.4108 29.6117C30.4882 29.5725 30.5339 29.4981 30.5339 29.4113V28.2775Z" fill="white"/>
</g>
<defs>
<clipPath id="clip0_2029_2">
<rect width="23" height="23" fill="white" transform="translate(14.5 13)"/>
</clipPath>
</defs>
</svg>
