<svg width="51" height="51" viewBox="0 0 51 51" fill="none" xmlns="http://www.w3.org/2000/svg">
<circle cx="25.5" cy="25.2803" r="25" fill="#FFC116"/>
<g clip-path="url(#clip0_2029_3)">
<path d="M37.4724 25.6504L35.7333 15.7874C35.5798 14.9166 34.8225 14.304 33.9679 14.304C33.8645 14.304 18.7383 16.9616 18.7383 16.9616C17.7621 17.1337 17.1103 18.0646 17.2824 19.0407L17.4501 19.9916H31.1016C32.8334 19.9916 34.2424 21.4006 34.2424 23.1325V24.391V27.4444V28.0423L36.0166 27.7295C36.9927 27.5574 37.6446 26.6265 37.4724 25.6504Z" fill="white"/>
<path d="M32.8963 28.7905H14.5V32.9014C14.5 33.8926 15.3036 34.6961 16.2948 34.6961H31.1016C32.0928 34.6961 32.8963 33.8926 32.8963 32.9014V28.7905ZM19.8433 33.0791H16.79C16.4183 33.0791 16.117 32.7778 16.117 32.4061C16.117 32.0344 16.4183 31.7331 16.79 31.7331H19.8433C20.215 31.7331 20.5163 32.0344 20.5163 32.4061C20.5163 32.7778 20.2151 33.0791 19.8433 33.0791Z" fill="white"/>
<path d="M14.5022 23.0449H32.8941C32.8484 22.0943 32.0634 21.3376 31.1015 21.3376H16.2948C15.3329 21.3376 14.5478 22.0943 14.5022 23.0449Z" fill="white"/>
<path d="M14.5 24.3911H32.8963V27.4445H14.5V24.3911Z" fill="white"/>
</g>
<defs>
<clipPath id="clip0_2029_3">
<rect width="23" height="23" fill="white" transform="translate(14.5 13)"/>
</clipPath>
</defs>
</svg>
