<svg width="39" height="40" viewBox="0 0 39 40" fill="none" xmlns="http://www.w3.org/2000/svg">
<circle cx="19.5" cy="20" r="19.5" fill="#FFC116"/>
<g clip-path="url(#clip0_1_47)">
<path d="M18.0839 31.5C18.0139 31.5 17.943 31.486 17.8753 31.4568C17.6383 31.3546 17.5101 31.0959 17.5723 30.8454L19.3556 23.6673H14.5508C14.3769 23.6673 14.2141 23.5816 14.1158 23.4381C14.0175 23.2946 13.9962 23.1119 14.059 22.9497L17.5838 13.8371C17.6624 13.6339 17.8578 13.5 18.0756 13.5H22.9258C23.104 13.5 23.2701 13.59 23.3675 13.7393C23.4648 13.8885 23.4802 14.0769 23.4083 14.24L21.3212 18.9776H25.4492C25.6421 18.9776 25.8195 19.0829 25.912 19.2522C26.0045 19.4214 25.9971 19.6276 25.8929 19.7899L18.5278 31.2576C18.4282 31.4127 18.2589 31.5 18.0839 31.5Z" fill="black"/>
</g>
<defs>
<clipPath id="clip0_1_47">
<rect width="18" height="18" fill="white" transform="translate(11 13.5)"/>
</clipPath>
</defs>
</svg>
