<svg width="12" height="12" viewBox="0 0 12 12" fill="none" xmlns="http://www.w3.org/2000/svg">
    <g clip-path="url(#clip0_7_670)">
        <path
            d="M7.53077 4.34766C7.37556 4.34766 7.24975 4.47347 7.24975 4.62869V9.94015C7.24975 10.0953 7.37556 10.2212 7.53077 10.2212C7.68602 10.2212 7.8118 10.0953 7.8118 9.94015V4.62869C7.8118 4.47347 7.68602 4.34766 7.53077 4.34766ZM4.21462 4.34766C4.05941 4.34766 3.93359 4.47347 3.93359 4.62869V9.94015C3.93359 10.0953 4.05941 10.2212 4.21462 10.2212C4.36986 10.2212 4.49565 10.0953 4.49565 9.94015V4.62869C4.49565 4.47347 4.36986 4.34766 4.21462 4.34766Z"
            fill="#000000" />
        <path
            d="M1.79816 3.57252V10.4965C1.79816 10.9058 1.94823 11.2901 2.21038 11.5658C2.33946 11.7026 2.49507 11.8117 2.66772 11.8863C2.84036 11.961 3.02641 11.9997 3.2145 12H8.53169C8.71979 11.9997 8.90584 11.961 9.07849 11.8864C9.25113 11.8117 9.40675 11.7026 9.53581 11.5658C9.79799 11.2901 9.94803 10.9058 9.94803 10.4965V3.57252C10.4691 3.43419 10.8068 2.93076 10.7371 2.39604C10.6673 1.86141 10.2118 1.4615 9.67259 1.46139H8.23375V1.1101C8.23456 0.963866 8.20631 0.818924 8.15064 0.683693C8.09497 0.548463 8.01299 0.425638 7.90947 0.32235C7.80591 0.219072 7.68287 0.137396 7.54749 0.0820654C7.41211 0.0267349 7.26709 -0.00114786 7.12084 3.64286e-05H4.62538C4.47913 -0.00115159 4.3341 0.0267293 4.19871 0.08206C4.06333 0.137391 3.94028 0.219068 3.83673 0.32235C3.7332 0.425638 3.65122 0.548463 3.59555 0.683693C3.53989 0.818924 3.51164 0.963866 3.51245 1.1101V1.46139H2.07363C1.53439 1.4615 1.07892 1.86141 1.00909 2.39604C0.939393 2.93076 1.27705 3.43419 1.79816 3.57252ZM8.53169 11.4379H3.21453C2.73402 11.4379 2.36022 11.0252 2.36022 10.4965V3.59722H9.38597V10.4965C9.38597 11.0252 9.0122 11.4379 8.53169 11.4379ZM4.07451 1.1101C4.07359 1.03765 4.08723 0.96575 4.11463 0.898671C4.14204 0.831593 4.18263 0.770702 4.23402 0.719613C4.28539 0.668496 4.34649 0.628214 4.41372 0.601156C4.48095 0.574098 4.55292 0.560816 4.62538 0.562096H7.12084C7.1933 0.560816 7.26527 0.574098 7.3325 0.601156C7.39973 0.628214 7.46084 0.668496 7.5122 0.719613C7.56359 0.770698 7.60419 0.831589 7.63158 0.898669C7.65898 0.965749 7.67262 1.03765 7.67169 1.1101V1.46139H4.07451V1.1101ZM2.07363 2.02345H9.67265C9.95202 2.02345 10.1785 2.24993 10.1785 2.5293C10.1785 2.80868 9.95202 3.03516 9.67265 3.03516H2.0736C1.79423 3.03516 1.56775 2.80868 1.56775 2.5293C1.56775 2.24993 1.79426 2.02345 2.07363 2.02345Z"
            fill="#000000" />
        <path
            d="M5.87283 4.34766C5.71761 4.34766 5.5918 4.47347 5.5918 4.62869V9.94015C5.5918 10.0953 5.71761 10.2212 5.87283 10.2212C6.02807 10.2212 6.15386 10.0953 6.15386 9.94015V4.62869C6.15386 4.47347 6.02807 4.34766 5.87283 4.34766Z"
            fill="#000000" />
    </g>
    <defs>
        <clipPath id="clip0_7_670">
            <rect width="12" height="12" fill="#000000" />
        </clipPath>
    </defs>
</svg>