<svg width="28" height="21" viewBox="0 0 28 21" fill="none" xmlns="http://www.w3.org/2000/svg">
<path d="M25.5938 0.71875L27.8438 3.125C26.2396 4.33333 24.9688 5.59375 24.0312 6.90625C23.0938 8.19792 22.4688 9.58333 22.1562 11.0625C23.8438 12 24.9375 12.75 25.4375 13.3125C25.9375 13.8542 26.1875 14.4896 26.1875 15.2188C26.1875 15.8646 25.9792 16.4792 25.5625 17.0625C25.1458 17.625 24.4792 18.2292 23.5625 18.875L20.9375 20.75C18.8542 19.375 17.4479 18.1979 16.7188 17.2188C15.9896 16.2188 15.625 15.0833 15.625 13.8125C15.625 11.9167 16.5 9.8125 18.25 7.5C20 5.1875 22.4479 2.92708 25.5938 0.71875ZM10.5 0.71875L12.75 3.125C11.0625 4.4375 9.76042 5.72917 8.84375 7C7.92708 8.27083 7.33333 9.625 7.0625 11.0625C8.625 11.8958 9.6875 12.6146 10.25 13.2188C10.8125 13.8229 11.0938 14.5104 11.0938 15.2812C11.0938 15.9062 10.8854 16.5 10.4688 17.0625C10.0729 17.6042 9.40625 18.2083 8.46875 18.875L5.84375 20.75C3.73958 19.375 2.32292 18.1979 1.59375 17.2188C0.885417 16.2188 0.53125 15.0833 0.53125 13.8125C0.53125 11.9375 1.40625 9.83333 3.15625 7.5C4.92708 5.16667 7.375 2.90625 10.5 0.71875Z" fill="black"/>
</svg>
