<svg width="61" height="61" viewBox="0 0 61 61" fill="none" xmlns="http://www.w3.org/2000/svg">
<circle cx="30.5" cy="30.5" r="30.5" fill="#FFC116"/>
<path d="M37.7373 31.4784C37.6445 31.3836 37.5338 31.3081 37.4115 31.2565C37.2893 31.2049 37.158 31.1781 37.0253 31.1777C36.8925 31.1774 36.7611 31.2034 36.6386 31.2544C36.516 31.3053 36.4049 31.3802 36.3115 31.4745C36.2182 31.5689 36.1446 31.6809 36.095 31.804C36.0454 31.9271 36.0208 32.0588 36.0226 32.1915C36.0245 32.3242 36.0527 32.4552 36.1056 32.5769C36.1586 32.6986 36.2353 32.8085 36.3311 32.9002C37.1796 33.7351 37.8527 34.731 38.311 35.8295C38.7693 36.928 39.0036 38.107 39 39.2972C39 40.5203 35.4941 42.2972 30 42.2972C24.5059 42.2972 21 40.5194 21 39.2952C20.9967 38.1131 21.2278 36.9421 21.6801 35.8499C22.1324 34.7578 22.7968 33.7662 23.6348 32.9325C23.7296 32.8401 23.8051 32.7298 23.857 32.608C23.9088 32.4861 23.9359 32.3552 23.9367 32.2228C23.9376 32.0905 23.9121 31.9592 23.8618 31.8368C23.8116 31.7143 23.7375 31.603 23.6439 31.5094C23.5503 31.4158 23.439 31.3417 23.3165 31.2914C23.194 31.2411 23.0628 31.2157 22.9304 31.2165C22.798 31.2174 22.6671 31.2445 22.5453 31.2963C22.4235 31.3481 22.3132 31.4236 22.2207 31.5184C21.1962 32.5376 20.3839 33.7499 19.8311 35.0852C19.2783 36.4204 18.9958 37.8521 19 39.2972C19 42.5448 24.667 44.2972 30 44.2972C35.333 44.2972 41 42.5448 41 39.2972C41.0045 37.8423 40.7182 36.4012 40.1579 35.0585C39.5976 33.7158 38.7746 32.4986 37.7373 31.4784Z" fill="black"/>
<path d="M30 32.2969C31.3845 32.2969 32.7379 31.8863 33.889 31.1172C35.0402 30.348 35.9374 29.2547 36.4672 27.9757C36.997 26.6966 37.1356 25.2891 36.8655 23.9312C36.5954 22.5734 35.9288 21.3261 34.9498 20.3471C33.9708 19.3682 32.7235 18.7015 31.3657 18.4314C30.0078 18.1613 28.6003 18.2999 27.3213 18.8297C26.0422 19.3595 24.9489 20.2567 24.1798 21.4079C23.4106 22.559 23 23.9124 23 25.2969C23.0022 27.1527 23.7404 28.932 25.0527 30.2443C26.365 31.5565 28.1442 32.2947 30 32.2969ZM30 20.2969C30.989 20.2969 31.9557 20.5901 32.7779 21.1395C33.6001 21.6889 34.241 22.4698 34.6194 23.3835C34.9979 24.2971 35.0969 25.3024 34.904 26.2723C34.711 27.2422 34.2348 28.1331 33.5356 28.8324C32.8363 29.5317 31.9454 30.0079 30.9755 30.2008C30.0056 30.3937 29.0003 30.2947 28.0866 29.9163C27.173 29.5378 26.3921 28.897 25.8427 28.0747C25.2933 27.2525 25 26.2858 25 25.2969C25.0016 23.9713 25.5289 22.7004 26.4662 21.7631C27.4036 20.8257 28.6744 20.2984 30 20.2969Z" fill="black"/>
</svg>
